<svg width="200" height="200" viewBox="0 0 200 200" fill="none" xmlns="http://www.w3.org/2000/svg">
<path d="M166.667 33.3333H33.3332C24.1665 33.3333 16.7498 40.8333 16.7498 50L16.6665 150C16.6665 159.167 24.1665 166.667 33.3332 166.667H166.667C175.833 166.667 183.333 159.167 183.333 150V50C183.333 40.8333 175.833 33.3333 166.667 33.3333ZM163.333 68.75L104.417 105.583C101.75 107.25 98.2498 107.25 95.5832 105.583L36.6665 68.75C35.8309 68.2809 35.0992 67.6472 34.5156 66.8871C33.932 66.127 33.5087 65.2565 33.2713 64.3281C33.0339 63.3997 32.9874 62.4328 33.1345 61.4859C33.2816 60.539 33.6193 59.6318 34.1272 58.8192C34.6351 58.0065 35.3025 57.3054 36.0892 56.7583C36.8759 56.2111 37.7654 55.8292 38.704 55.6358C39.6425 55.4424 40.6105 55.4414 41.5495 55.6329C42.4884 55.8244 43.3787 56.2044 44.1665 56.75L99.9998 91.6666L155.833 56.75C156.621 56.2044 157.511 55.8244 158.45 55.6329C159.389 55.4414 160.357 55.4424 161.296 55.6358C162.234 55.8292 163.124 56.2111 163.91 56.7583C164.697 57.3054 165.365 58.0065 165.873 58.8192C166.38 59.6318 166.718 60.539 166.865 61.4859C167.012 62.4328 166.966 63.3997 166.728 64.3281C166.491 65.2565 166.068 66.127 165.484 66.8871C164.901 67.6472 164.169 68.2809 163.333 68.75Z" fill="black"/>
</svg>
