<svg width="200" height="200" viewBox="0 0 200 200" fill="none" xmlns="http://www.w3.org/2000/svg">
<path d="M128.85 111.308C131.982 111.308 134.579 112.855 136.837 115.912C139.073 118.993 140.26 122.748 140.26 127.247C140.26 131.723 139.073 135.513 136.837 138.558C134.59 141.639 131.982 143.162 128.85 143.162C125.614 143.162 122.773 141.639 120.526 138.558C118.29 135.513 117.103 131.723 117.103 127.247C117.103 122.748 118.29 118.993 120.526 115.912C122.761 112.843 125.602 111.308 128.85 111.308ZM168.902 69.9335C177.587 79.3618 182 90.8012 182 104.263C182 112.959 180.999 120.806 178.984 127.782C176.947 134.722 174.397 140.384 171.37 144.743C168.244 149.168 164.413 153.052 160.03 156.241C156.216 159.163 152.05 161.596 147.63 163.483C143.456 165.121 139.12 166.313 134.695 167.041C131.063 167.71 127.398 168.188 123.716 168.471L115.741 168.633L109.372 168.808C103.46 169.064 97.5399 169.064 91.6281 168.808L85.2595 168.633L77.2841 168.471C73.6016 168.188 69.9368 167.711 66.3049 167.041C61.8761 166.33 57.5386 165.137 53.3697 163.483C48.9508 161.601 44.7883 159.167 40.9817 156.241C36.5924 153.055 32.7574 149.171 29.6299 144.743C26.5911 140.384 24.053 134.722 22.0155 127.782C20.0013 120.806 19 112.959 19 104.263C19 90.8012 23.4126 79.3501 32.0982 69.9335C31.1435 69.4569 31.1086 64.737 32.0051 55.7854C32.6262 47.275 34.5705 38.9131 37.7683 31C48.6427 32.1509 62.1019 38.3124 78.1806 49.3798C83.6062 47.9964 90.9994 47.2523 100.5 47.2523C110.42 47.2523 117.86 47.9964 122.831 49.3914C130.154 44.4506 137.152 40.4282 143.846 37.3707C150.646 34.3365 155.547 32.5346 158.621 32.0579L163.232 31.0116C166.375 38.5565 168.285 46.8222 169.007 55.797C169.891 64.737 169.857 69.4569 168.902 69.9335ZM100.849 160.844C120.502 160.844 135.242 158.496 145.337 153.788C155.291 149.091 160.379 139.395 160.379 124.771C160.379 116.284 157.201 109.193 150.809 103.519C147.637 100.509 143.619 98.5375 139.294 97.8694C134.928 97.1603 128.245 97.1603 119.268 97.8694C110.315 98.5902 104.156 98.9157 100.849 98.9157C96.3668 98.9157 91.535 98.7065 85.4924 98.2298C79.4381 97.7648 74.6878 97.4742 71.2531 97.323C67.4964 97.2576 63.7471 97.6797 60.0993 98.5786C56.4244 99.3626 53.0079 101.062 50.1679 103.519C44.102 108.972 40.9701 116.04 40.9701 124.771C40.9701 139.395 45.9299 149.091 55.8729 153.788C65.7694 158.496 80.4743 160.844 100.139 160.844H100.849ZM72.5106 111.308C75.6309 111.308 78.2389 112.855 80.4859 115.912C82.7214 118.993 83.9089 122.748 83.9089 127.247C83.9089 131.723 82.7214 135.513 80.4859 138.558C78.2505 141.639 75.6309 143.162 72.5106 143.162C69.2622 143.162 66.433 141.639 64.1743 138.558C61.9389 135.513 60.7513 131.723 60.7513 127.247C60.7513 122.748 61.9389 118.993 64.1743 115.912C66.4214 112.843 69.2506 111.308 72.5106 111.308Z" fill="black"/>
</svg>
