<svg width="100" height="100" viewBox="0 0 100 100" fill="none" xmlns="http://www.w3.org/2000/svg">
<path d="M53.2697 73.2539C53.7067 73.6894 54.0534 74.2068 54.29 74.7766C54.5266 75.3464 54.6484 75.9573 54.6484 76.5742C54.6484 77.1911 54.5266 77.802 54.29 78.3718C54.0534 78.9416 53.7067 79.459 53.2697 79.8945L50.9494 82.2148C46.5526 86.6116 40.5893 89.0817 34.3713 89.0817C28.1533 89.0817 22.1899 86.6116 17.7932 82.2148C13.3964 77.818 10.9263 71.8547 10.9263 65.6367C10.9263 59.4187 13.3964 53.4554 17.7932 49.0586L27.215 39.6406C31.4396 35.4056 37.1235 32.9462 43.1026 32.7661C49.0817 32.586 54.9034 34.6988 59.3752 38.6719C59.8369 39.0822 60.2132 39.5795 60.4827 40.1354C60.7522 40.6912 60.9095 41.2946 60.9458 41.9113C60.9821 42.5279 60.8966 43.1457 60.6941 43.7292C60.4916 44.3128 60.1762 44.8508 59.7658 45.3125C59.3554 45.7742 58.8581 46.1505 58.3023 46.42C57.7465 46.6895 57.143 46.8468 56.5264 46.8831C55.9098 46.9194 55.292 46.8339 54.7084 46.6314C54.1249 46.4289 53.5869 46.1135 53.1252 45.7031C50.4436 43.3216 46.9534 42.0546 43.3686 42.1613C39.7838 42.2681 36.3752 43.7405 33.84 46.2773L24.426 55.6836C21.7883 58.3212 20.3065 61.8987 20.3065 65.6289C20.3065 69.3591 21.7883 72.9365 24.426 75.5742C27.0636 78.2119 30.6411 79.6937 34.3713 79.6937C38.1015 79.6937 41.6789 78.2119 44.3166 75.5742L46.6369 73.2539C47.0722 72.8181 47.5892 72.4723 48.1583 72.2364C48.7273 72.0005 49.3373 71.8791 49.9533 71.8791C50.5693 71.8791 51.1793 72.0005 51.7483 72.2364C52.3174 72.4723 52.8344 72.8181 53.2697 73.2539ZM82.2072 17.7851C77.8068 13.3951 71.8448 10.9297 65.6291 10.9297C59.4133 10.9297 53.4513 13.3951 49.051 17.7851L46.7307 20.1055C45.8501 20.9861 45.3553 22.1804 45.3553 23.4258C45.3553 24.6711 45.8501 25.8655 46.7307 26.7461C47.6113 27.6267 48.8056 28.1214 50.051 28.1214C51.2963 28.1214 52.4907 27.6267 53.3713 26.7461L55.6916 24.4258C58.3293 21.7881 61.9067 20.3063 65.6369 20.3063C69.3671 20.3063 72.9446 21.7881 75.5822 24.4258C78.2199 27.0634 79.7017 30.6409 79.7017 34.3711C79.7017 38.1013 78.2199 41.6787 75.5822 44.3164L66.1642 53.7383C63.6269 56.2741 60.2164 57.7443 56.6306 57.8482C53.0449 57.952 49.555 56.6816 46.8752 54.2969C46.4135 53.8865 45.8755 53.5711 45.2919 53.3686C44.7084 53.1661 44.0906 53.0806 43.474 53.1169C42.8573 53.1531 42.2539 53.3105 41.6981 53.58C41.1422 53.8495 40.6449 54.2258 40.2346 54.6875C39.8242 55.1492 39.5088 55.6872 39.3063 56.2707C39.1038 56.8543 39.0183 57.4721 39.0546 58.0887C39.0908 58.7053 39.2482 59.3088 39.5177 59.8646C39.7872 60.4204 40.1635 60.9177 40.6252 61.3281C45.0939 65.3003 50.9116 67.4144 56.8879 67.238C62.8642 67.0615 68.5471 64.6078 72.7736 60.3789L82.1955 50.9609C86.5907 46.5616 89.0605 40.598 89.0627 34.3794C89.0649 28.1607 86.5993 22.1954 82.2072 17.793V17.7851Z" fill="black"/>
</svg>
