<svg width="200" height="200" viewBox="0 0 200 200" fill="none" xmlns="http://www.w3.org/2000/svg">
<path d="M164.939 32.2096C164.939 32.2096 180.201 26.2795 178.924 40.6801C178.504 46.6102 174.689 67.3675 171.719 89.8159L161.544 156.319C161.544 156.319 160.696 166.062 153.063 167.757C145.434 169.448 133.986 161.827 131.864 160.132C130.167 158.86 100.067 139.797 89.4679 130.481C86.498 127.937 83.1037 122.856 89.8922 116.926L134.406 74.5659C139.494 69.4852 144.581 57.6249 123.383 72.0255L64.0229 112.264C64.0229 112.264 57.2384 116.503 44.5218 112.691L16.9593 104.216C16.9593 104.216 6.78447 97.8636 24.1682 91.5107C66.5686 71.6028 118.72 51.2721 164.931 32.2096H164.939Z" fill="black"/>
</svg>
