<svg width="200" height="200" viewBox="0 0 200 200" fill="none" xmlns="http://www.w3.org/2000/svg">
<path d="M136.333 116.667C137 111.167 137.5 105.667 137.5 100C137.5 94.3334 137 88.8334 136.333 83.3334H164.5C165.833 88.6667 166.666 94.25 166.666 100C166.666 105.75 165.833 111.333 164.5 116.667M121.583 163C126.583 153.75 130.417 143.75 133.083 133.333H157.666C149.593 147.236 136.784 157.767 121.583 163ZM119.5 116.667H80.4998C79.6665 111.167 79.1665 105.667 79.1665 100C79.1665 94.3334 79.6665 88.75 80.4998 83.3334H119.5C120.25 88.75 120.833 94.3334 120.833 100C120.833 105.667 120.25 111.167 119.5 116.667ZM99.9998 166.333C93.0832 156.333 87.4998 145.25 84.0832 133.333H115.916C112.5 145.25 106.917 156.333 99.9998 166.333ZM66.6665 66.6667H42.3332C50.3236 52.7268 63.1231 42.1791 78.3332 37C73.3332 46.25 69.5832 56.25 66.6665 66.6667ZM42.3332 133.333H66.6665C69.5832 143.75 73.3332 153.75 78.3332 163C63.155 157.764 50.3736 147.231 42.3332 133.333ZM35.4998 116.667C34.1665 111.333 33.3332 105.75 33.3332 100C33.3332 94.25 34.1665 88.6667 35.4998 83.3334H63.6665C62.9998 88.8334 62.4998 94.3334 62.4998 100C62.4998 105.667 62.9998 111.167 63.6665 116.667M99.9998 33.5834C106.917 43.5834 112.5 54.75 115.916 66.6667H84.0832C87.4998 54.75 93.0832 43.5834 99.9998 33.5834ZM157.666 66.6667H133.083C130.475 56.3455 126.613 46.3825 121.583 37C136.917 42.25 149.666 52.8334 157.666 66.6667ZM99.9998 16.6667C53.9165 16.6667 16.6665 54.1667 16.6665 100C16.6665 122.101 25.4462 143.298 41.0743 158.926C48.8125 166.664 57.9991 172.802 68.1095 176.99C78.22 181.178 89.0563 183.333 99.9998 183.333C122.101 183.333 143.297 174.554 158.925 158.926C174.553 143.298 183.333 122.101 183.333 100C183.333 89.0565 181.178 78.2202 176.99 68.1097C172.802 57.9993 166.664 48.8127 158.925 41.0745C151.187 33.3362 142.001 27.198 131.89 23.0101C121.78 18.8222 110.943 16.6667 99.9998 16.6667Z" fill="black"/>
</svg>
